# xmcd
#
# Track frame offsets: 
#        150
#        13197
#        22106
#        35111
#        48131
#        57768
#        67669
#        77638
#        86588
#        98036
#        109604
#        120043
#        134316
#        147168
#        159454
#        171987
#        182643
#        193031
#        202916
#        215303
#        225460
#        235594
#        246835
#        256428
#        266759
#
# Disc length: 3714 seconds
#
# Revision: 0
# Processed by: cddbd v1.5.2PL0 Copyright (c) Steve Scherf et al.
# Submitted via: ExactAudioCopy v0.99pb5
#
DISCID=480e8019
DTITLE=The Stanley Brothers - Selected Cuts 1956-1959
DYEAR=2010
DGENRE=Bluegrass
TTITLE0=The Cry from the Cross
TTITLE1=I'm Lost, I'll Never Find the Way
TTITLE2=Let Me Walk, Lord, By Your Side
TTITLE3=A Lonesome Night
TTITLE4=Fling Ding
TTITLE5=I'll Never Grow Tired of You
TTITLE6=Loving You Too Well
TTITLE7=Daybreak in Dixie
TTITLE8=If That's the Way You Feel
TTITLE9=A Life of Sorrow
TTITLE10=I'd Rather Be Forgotten
TTITLE11=The Flood
TTITLE12=No School Bus in Heaven
TTITLE13=Maple on the Hill
TTITLE14=Little Maggie
TTITLE15=Gonna Paint the Town
TTITLE16=That Happy Night
TTITLE17=Holiday Pickin'
TTITLE18=Train 45
TTITLE19=She's More to be Pitied
TTITLE20=Love Me Darling Just Tonight
TTITLE21=Trust Each Other
TTITLE22=How Mountain Girls Can Love
TTITLE23=The Memory of Your Smile
TTITLE24=I'm a Man of Constant Sorrow
EXTD=
EXTT0=
EXTT1=
EXTT2=
EXTT3=
EXTT4=
EXTT5=
EXTT6=
EXTT7=
EXTT8=
EXTT9=
EXTT10=
EXTT11=
EXTT12=
EXTT13=
EXTT14=
EXTT15=
EXTT16=
EXTT17=
EXTT18=
EXTT19=
EXTT20=
EXTT21=
EXTT22=
EXTT23=
EXTT24=
PLAYORDER=
